%TF.GenerationSoftware,KiCad,Pcbnew,9.0.5*%
%TF.CreationDate,2026-03-02T22:48:12+01:00*%
%TF.ProjectId,PCB-schematics,5043422d-7363-4686-956d-61746963732e,rev?*%
%TF.SameCoordinates,Original*%
%TF.FileFunction,Copper,L1,Top*%
%TF.FilePolarity,Positive*%
%FSLAX46Y46*%
G04 Gerber Fmt 4.6, Leading zero omitted, Abs format (unit mm)*
G04 Created by KiCad (PCBNEW 9.0.5) date 2026-03-02 22:48:12*
%MOMM*%
%LPD*%
G01*
G04 APERTURE LIST*
G04 Aperture macros list*
%AMRoundRect*
0 Rectangle with rounded corners*
0 $1 Rounding radius*
0 $2 $3 $4 $5 $6 $7 $8 $9 X,Y pos of 4 corners*
0 Add a 4 corners polygon primitive as box body*
4,1,4,$2,$3,$4,$5,$6,$7,$8,$9,$2,$3,0*
0 Add four circle primitives for the rounded corners*
1,1,$1+$1,$2,$3*
1,1,$1+$1,$4,$5*
1,1,$1+$1,$6,$7*
1,1,$1+$1,$8,$9*
0 Add four rect primitives between the rounded corners*
20,1,$1+$1,$2,$3,$4,$5,0*
20,1,$1+$1,$4,$5,$6,$7,0*
20,1,$1+$1,$6,$7,$8,$9,0*
20,1,$1+$1,$8,$9,$2,$3,0*%
G04 Aperture macros list end*
%TA.AperFunction,ComponentPad*%
%ADD10R,1.700000X1.700000*%
%TD*%
%TA.AperFunction,ComponentPad*%
%ADD11C,1.700000*%
%TD*%
%TA.AperFunction,ComponentPad*%
%ADD12RoundRect,0.250000X0.725000X-0.600000X0.725000X0.600000X-0.725000X0.600000X-0.725000X-0.600000X0*%
%TD*%
%TA.AperFunction,ComponentPad*%
%ADD13O,1.950000X1.700000*%
%TD*%
%TA.AperFunction,ComponentPad*%
%ADD14C,1.600000*%
%TD*%
%TA.AperFunction,ComponentPad*%
%ADD15RoundRect,0.250000X-0.550000X-0.550000X0.550000X-0.550000X0.550000X0.550000X-0.550000X0.550000X0*%
%TD*%
%TA.AperFunction,SMDPad,CuDef*%
%ADD16RoundRect,0.200000X0.200000X0.275000X-0.200000X0.275000X-0.200000X-0.275000X0.200000X-0.275000X0*%
%TD*%
%TA.AperFunction,SMDPad,CuDef*%
%ADD17RoundRect,0.200000X0.275000X-0.200000X0.275000X0.200000X-0.275000X0.200000X-0.275000X-0.200000X0*%
%TD*%
%TA.AperFunction,ComponentPad*%
%ADD18O,2.000000X1.700000*%
%TD*%
%TA.AperFunction,ComponentPad*%
%ADD19RoundRect,0.250000X-0.750000X0.600000X-0.750000X-0.600000X0.750000X-0.600000X0.750000X0.600000X0*%
%TD*%
%TA.AperFunction,SMDPad,CuDef*%
%ADD20RoundRect,0.200000X-0.200000X-0.275000X0.200000X-0.275000X0.200000X0.275000X-0.200000X0.275000X0*%
%TD*%
%TA.AperFunction,SMDPad,CuDef*%
%ADD21RoundRect,0.225000X-0.225000X-0.250000X0.225000X-0.250000X0.225000X0.250000X-0.225000X0.250000X0*%
%TD*%
%TA.AperFunction,SMDPad,CuDef*%
%ADD22RoundRect,0.200000X-0.275000X0.200000X-0.275000X-0.200000X0.275000X-0.200000X0.275000X0.200000X0*%
%TD*%
%TA.AperFunction,ComponentPad*%
%ADD23O,1.700000X1.950000*%
%TD*%
%TA.AperFunction,ComponentPad*%
%ADD24RoundRect,0.250000X0.600000X0.725000X-0.600000X0.725000X-0.600000X-0.725000X0.600000X-0.725000X0*%
%TD*%
%TA.AperFunction,SMDPad,CuDef*%
%ADD25RoundRect,0.225000X-0.250000X0.225000X-0.250000X-0.225000X0.250000X-0.225000X0.250000X0.225000X0*%
%TD*%
%TA.AperFunction,SMDPad,CuDef*%
%ADD26RoundRect,0.225000X0.225000X0.250000X-0.225000X0.250000X-0.225000X-0.250000X0.225000X-0.250000X0*%
%TD*%
%TA.AperFunction,SMDPad,CuDef*%
%ADD27RoundRect,0.225000X0.250000X-0.225000X0.250000X0.225000X-0.250000X0.225000X-0.250000X-0.225000X0*%
%TD*%
%TA.AperFunction,ComponentPad*%
%ADD28RoundRect,0.250000X0.750000X-0.600000X0.750000X0.600000X-0.750000X0.600000X-0.750000X-0.600000X0*%
%TD*%
%TA.AperFunction,SMDPad,CuDef*%
%ADD29RoundRect,0.250000X-0.295000X-0.315000X0.295000X-0.315000X0.295000X0.315000X-0.295000X0.315000X0*%
%TD*%
%TA.AperFunction,ComponentPad*%
%ADD30RoundRect,0.249999X0.850001X-0.850001X0.850001X0.850001X-0.850001X0.850001X-0.850001X-0.850001X0*%
%TD*%
%TA.AperFunction,ComponentPad*%
%ADD31C,2.200000*%
%TD*%
%TA.AperFunction,ComponentPad*%
%ADD32R,1.905000X2.000000*%
%TD*%
%TA.AperFunction,ComponentPad*%
%ADD33O,1.905000X2.000000*%
%TD*%
%TA.AperFunction,ComponentPad*%
%ADD34RoundRect,0.250000X0.620000X-0.620000X0.620000X0.620000X-0.620000X0.620000X-0.620000X-0.620000X0*%
%TD*%
%TA.AperFunction,ComponentPad*%
%ADD35C,1.740000*%
%TD*%
%TA.AperFunction,ComponentPad*%
%ADD36R,2.000000X1.905000*%
%TD*%
%TA.AperFunction,ComponentPad*%
%ADD37O,2.000000X1.905000*%
%TD*%
%TA.AperFunction,ComponentPad*%
%ADD38RoundRect,0.250000X1.000000X1.000000X-1.000000X1.000000X-1.000000X-1.000000X1.000000X-1.000000X0*%
%TD*%
%TA.AperFunction,ComponentPad*%
%ADD39C,2.500000*%
%TD*%
%TA.AperFunction,ViaPad*%
%ADD40C,0.600000*%
%TD*%
%TA.AperFunction,Conductor*%
%ADD41C,0.200000*%
%TD*%
G04 APERTURE END LIST*
D10*
%TO.P,J23,1,Pin_1*%
%TO.N,5V*%
X73000000Y-31500000D03*
D11*
%TO.P,J23,2,Pin_2*%
%TO.N,Net-(J20-Pin_1)*%
X73000000Y-28960000D03*
%TO.P,J23,3,Pin_3*%
%TO.N,VCC*%
X73000000Y-26420000D03*
%TD*%
D12*
%TO.P,J13,1,Pin_1*%
%TO.N,GND*%
X50000000Y-22000000D03*
D13*
%TO.P,J13,2,Pin_2*%
%TO.N,Par4*%
X50000000Y-19500000D03*
%TO.P,J13,3,Pin_3*%
%TO.N,3.3V*%
X50000000Y-17000000D03*
%TD*%
D12*
%TO.P,J12,1,Pin_1*%
%TO.N,GND*%
X39000000Y-22000000D03*
D13*
%TO.P,J12,2,Pin_2*%
%TO.N,Par3*%
X39000000Y-19500000D03*
%TO.P,J12,3,Pin_3*%
%TO.N,3.3V*%
X39000000Y-17000000D03*
%TD*%
D12*
%TO.P,J11,1,Pin_1*%
%TO.N,GND*%
X50000000Y-36500000D03*
D13*
%TO.P,J11,2,Pin_2*%
%TO.N,Par2*%
X50000000Y-34000000D03*
%TO.P,J11,3,Pin_3*%
%TO.N,3.3V*%
X50000000Y-31500000D03*
%TD*%
D12*
%TO.P,J10,1,Pin_1*%
%TO.N,GND*%
X38500000Y-36500000D03*
D13*
%TO.P,J10,2,Pin_2*%
%TO.N,Par1*%
X38500000Y-34000000D03*
%TO.P,J10,3,Pin_3*%
%TO.N,3.3V*%
X38500000Y-31500000D03*
%TD*%
D14*
%TO.P,U1,8,V+*%
%TO.N,3.3V*%
X103815000Y-62190000D03*
%TO.P,U1,7*%
%TO.N,Net-(U1B--)*%
X103815000Y-64730000D03*
%TO.P,U1,6,-*%
X103815000Y-67270000D03*
%TO.P,U1,5,+*%
%TO.N,Net-(U1B-+)*%
X103815000Y-69810000D03*
%TO.P,U1,4,V-*%
%TO.N,GND*%
X96195000Y-69810000D03*
%TO.P,U1,3,+*%
%TO.N,Net-(U1A-+)*%
X96195000Y-67270000D03*
%TO.P,U1,2,-*%
%TO.N,Line-in*%
X96195000Y-64730000D03*
D15*
%TO.P,U1,1*%
X96195000Y-62190000D03*
%TD*%
D16*
%TO.P,R3,2*%
%TO.N,Net-(U1A-+)*%
X94350000Y-77400000D03*
%TO.P,R3,1*%
%TO.N,Net-(J2-Pin_1)*%
X96000000Y-77400000D03*
%TD*%
D17*
%TO.P,R7,2*%
%TO.N,3.3V*%
X98000000Y-50020000D03*
%TO.P,R7,1*%
%TO.N,Net-(U1B-+)*%
X98000000Y-51670000D03*
%TD*%
D16*
%TO.P,R2,2*%
%TO.N,Net-(J2-Pin_1)*%
X99350000Y-87900000D03*
%TO.P,R2,1*%
%TO.N,Net-(J3-Pin_2)*%
X101000000Y-87900000D03*
%TD*%
D17*
%TO.P,R8,2*%
%TO.N,Net-(U1B-+)*%
X98500000Y-55995000D03*
%TO.P,R8,1*%
%TO.N,GND*%
X98500000Y-57645000D03*
%TD*%
D18*
%TO.P,J4,2,Pin_2*%
%TO.N,GND*%
X107000000Y-48500000D03*
D19*
%TO.P,J4,1,Pin_1*%
%TO.N,Net-(J4-Pin_1)*%
X107000000Y-46000000D03*
%TD*%
D20*
%TO.P,R5,2*%
%TO.N,Net-(U1A-+)*%
X91815000Y-76100000D03*
%TO.P,R5,1*%
%TO.N,GND*%
X90165000Y-76100000D03*
%TD*%
D21*
%TO.P,C4,2*%
%TO.N,Net-(U1B-+)*%
X97000000Y-54140000D03*
%TO.P,C4,1*%
%TO.N,Net-(C3-Pad1)*%
X95450000Y-54140000D03*
%TD*%
D18*
%TO.P,J1,2,Pin_2*%
%TO.N,GND*%
X107000000Y-90500000D03*
D19*
%TO.P,J1,1,Pin_1*%
%TO.N,Net-(J1-Pin_1)*%
X107000000Y-88000000D03*
%TD*%
D22*
%TO.P,R10,2*%
%TO.N,Net-(J4-Pin_1)*%
X101500000Y-45645000D03*
%TO.P,R10,1*%
%TO.N,GND*%
X101500000Y-43995000D03*
%TD*%
D23*
%TO.P,J3,3,Pin_3*%
%TO.N,GND*%
X101500000Y-100500000D03*
%TO.P,J3,2,Pin_2*%
%TO.N,Net-(J3-Pin_2)*%
X104000000Y-100500000D03*
D24*
%TO.P,J3,1,Pin_1*%
%TO.N,unconnected-(J3-Pin_1-Pad1)*%
X106500000Y-100500000D03*
%TD*%
D20*
%TO.P,R6,2*%
%TO.N,Net-(C3-Pad1)*%
X92480000Y-54000000D03*
%TO.P,R6,1*%
%TO.N,Line-out*%
X90830000Y-54000000D03*
%TD*%
%TO.P,R4,2*%
%TO.N,3.3V*%
X95980000Y-74500000D03*
%TO.P,R4,1*%
%TO.N,Net-(U1A-+)*%
X94330000Y-74500000D03*
%TD*%
D25*
%TO.P,C3,2*%
%TO.N,GND*%
X94000000Y-58140000D03*
%TO.P,C3,1*%
%TO.N,Net-(C3-Pad1)*%
X94000000Y-56590000D03*
%TD*%
D17*
%TO.P,R9,2*%
%TO.N,Net-(C5-Pad1)*%
X101500000Y-51500000D03*
%TO.P,R9,1*%
%TO.N,Net-(U1B--)*%
X101500000Y-53150000D03*
%TD*%
D16*
%TO.P,R1,2*%
%TO.N,Net-(J2-Pin_1)*%
X99350000Y-85000000D03*
%TO.P,R1,1*%
%TO.N,Net-(J2-Pin_3)*%
X101000000Y-85000000D03*
%TD*%
D26*
%TO.P,C1,2*%
%TO.N,GND*%
X94225000Y-81000000D03*
%TO.P,C1,1*%
%TO.N,Net-(J2-Pin_1)*%
X95775000Y-81000000D03*
%TD*%
%TO.P,C2,2*%
%TO.N,GND*%
X89950000Y-73500000D03*
%TO.P,C2,1*%
%TO.N,Net-(U1A-+)*%
X91500000Y-73500000D03*
%TD*%
D23*
%TO.P,J2,3,Pin_3*%
%TO.N,Net-(J2-Pin_3)*%
X101500000Y-80000000D03*
%TO.P,J2,2,Pin_2*%
%TO.N,Net-(J1-Pin_1)*%
X104000000Y-80000000D03*
D24*
%TO.P,J2,1,Pin_1*%
%TO.N,Net-(J2-Pin_1)*%
X106500000Y-80000000D03*
%TD*%
D27*
%TO.P,C5,2*%
%TO.N,Net-(J4-Pin_1)*%
X101500000Y-48000000D03*
%TO.P,C5,1*%
%TO.N,Net-(C5-Pad1)*%
X101500000Y-49550000D03*
%TD*%
D18*
%TO.P,J22,2,Pin_2*%
%TO.N,MODE2*%
X47500000Y-69500000D03*
D28*
%TO.P,J22,1,Pin_1*%
%TO.N,3.3V*%
X47500000Y-72000000D03*
%TD*%
D20*
%TO.P,R11,1*%
%TO.N,Net-(J15-Pin_2)*%
X44825000Y-47750000D03*
%TO.P,R11,2*%
%TO.N,GND*%
X46475000Y-47750000D03*
%TD*%
D28*
%TO.P,J20,1,Pin_1*%
%TO.N,Net-(J20-Pin_1)*%
X64500000Y-25000000D03*
D18*
%TO.P,J20,2,Pin_2*%
%TO.N,GND*%
X64500000Y-22500000D03*
%TD*%
D26*
%TO.P,C11,1*%
%TO.N,3.3V*%
X103775000Y-22500000D03*
%TO.P,C11,2*%
%TO.N,GND*%
X102225000Y-22500000D03*
%TD*%
D28*
%TO.P,J21,1,Pin_1*%
%TO.N,3.3V*%
X38500000Y-72000000D03*
D18*
%TO.P,J21,2,Pin_2*%
%TO.N,MODE1*%
X38500000Y-69500000D03*
%TD*%
D27*
%TO.P,C9,1*%
%TO.N,5V*%
X80530000Y-31132500D03*
%TO.P,C9,2*%
%TO.N,GND*%
X80530000Y-29582500D03*
%TD*%
D29*
%TO.P,C6,1*%
%TO.N,VCC*%
X93570000Y-37132500D03*
%TO.P,C6,2*%
%TO.N,GND*%
X95000000Y-37132500D03*
%TD*%
D10*
%TO.P,J6,1,Pin_1*%
%TO.N,GND*%
X63500000Y-49080000D03*
D11*
%TO.P,J6,2,Pin_2*%
%TO.N,unconnected-(J6-Pin_2-Pad2)*%
X63500000Y-51620000D03*
%TO.P,J6,3,Pin_3*%
%TO.N,unconnected-(J6-Pin_3-Pad3)*%
X63500000Y-54160000D03*
%TO.P,J6,4,Pin_4*%
%TO.N,unconnected-(J6-Pin_4-Pad4)*%
X63500000Y-56700000D03*
%TO.P,J6,5,Pin_5*%
%TO.N,unconnected-(J6-Pin_5-Pad5)*%
X63500000Y-59240000D03*
%TO.P,J6,6,Pin_6*%
%TO.N,unconnected-(J6-Pin_6-Pad6)*%
X63500000Y-61780000D03*
%TO.P,J6,7,Pin_7*%
%TO.N,unconnected-(J6-Pin_7-Pad7)*%
X63500000Y-64320000D03*
%TO.P,J6,8,Pin_8*%
%TO.N,unconnected-(J6-Pin_8-Pad8)*%
X63500000Y-66860000D03*
%TO.P,J6,9,Pin_9*%
%TO.N,unconnected-(J6-Pin_9-Pad9)*%
X63500000Y-69400000D03*
%TO.P,J6,10,Pin_10*%
%TO.N,unconnected-(J6-Pin_10-Pad10)*%
X63500000Y-71940000D03*
%TO.P,J6,11,Pin_11*%
%TO.N,unconnected-(J6-Pin_11-Pad11)*%
X63500000Y-74480000D03*
%TO.P,J6,12,Pin_12*%
%TO.N,unconnected-(J6-Pin_12-Pad12)*%
X63500000Y-77020000D03*
%TO.P,J6,13,Pin_13*%
%TO.N,unconnected-(J6-Pin_13-Pad13)*%
X63500000Y-79560000D03*
%TO.P,J6,14,Pin_14*%
%TO.N,unconnected-(J6-Pin_14-Pad14)*%
X63500000Y-82100000D03*
%TO.P,J6,15,Pin_15*%
%TO.N,unconnected-(J6-Pin_15-Pad15)*%
X63500000Y-84640000D03*
%TO.P,J6,16,Pin_16*%
%TO.N,unconnected-(J6-Pin_16-Pad16)*%
X63500000Y-87180000D03*
%TO.P,J6,17,Pin_17*%
%TO.N,MODE1*%
X63500000Y-89720000D03*
%TO.P,J6,18,Pin_18*%
%TO.N,MODE2*%
X63500000Y-92260000D03*
%TO.P,J6,19,Pin_19*%
%TO.N,unconnected-(J6-Pin_19-Pad19)*%
X63500000Y-94800000D03*
%TO.P,J6,20,Pin_20*%
%TO.N,EFF_R*%
X63500000Y-97340000D03*
%TO.P,J6,21,Pin_21*%
%TO.N,EFF_S*%
X63500000Y-99880000D03*
%TO.P,J6,22,Pin_22*%
%TO.N,EFF_L*%
X63500000Y-102420000D03*
%TO.P,J6,23,Pin_23*%
%TO.N,unconnected-(J6-Pin_23-Pad23)*%
X63500000Y-104960000D03*
%TO.P,J6,24,Pin_24*%
%TO.N,unconnected-(J6-Pin_24-Pad24)*%
X63500000Y-107500000D03*
%TD*%
D30*
%TO.P,D1,1,K*%
%TO.N,VCC*%
X93000000Y-33212500D03*
D31*
%TO.P,D1,2,A*%
%TO.N,Net-(D1-A)*%
X93000000Y-23052500D03*
%TD*%
D32*
%TO.P,U2,1,VI*%
%TO.N,VCC*%
X84920000Y-35052500D03*
D33*
%TO.P,U2,2,GND*%
%TO.N,GND*%
X82380000Y-35052500D03*
%TO.P,U2,3,VO*%
%TO.N,5V*%
X79840000Y-35052500D03*
%TD*%
D28*
%TO.P,J19,1,Pin_1*%
%TO.N,SDA*%
X64500000Y-36000000D03*
D18*
%TO.P,J19,2,Pin_2*%
%TO.N,SCL*%
X64500000Y-33500000D03*
%TD*%
D28*
%TO.P,J18,1,Pin_1*%
%TO.N,EFF_R*%
X38475000Y-82750000D03*
D18*
%TO.P,J18,2,Pin_2*%
%TO.N,3.3V*%
X38475000Y-80250000D03*
%TD*%
D10*
%TO.P,J7,1,Pin_1*%
%TO.N,5V*%
X79002666Y-49116987D03*
D11*
%TO.P,J7,2,Pin_2*%
%TO.N,unconnected-(J7-Pin_2-Pad2)*%
X79002666Y-51656987D03*
%TO.P,J7,3,Pin_3*%
%TO.N,unconnected-(J7-Pin_3-Pad3)*%
X79002666Y-54196987D03*
%TO.P,J7,4,Pin_4*%
%TO.N,unconnected-(J7-Pin_4-Pad4)*%
X79002666Y-56736987D03*
%TO.P,J7,5,Pin_5*%
%TO.N,unconnected-(J7-Pin_5-Pad5)*%
X79002666Y-59276987D03*
%TO.P,J7,6,Pin_6*%
%TO.N,unconnected-(J7-Pin_6-Pad6)*%
X79002666Y-61816987D03*
%TO.P,J7,7,Pin_7*%
%TO.N,unconnected-(J7-Pin_7-Pad7)*%
X79002666Y-64356987D03*
%TO.P,J7,8,Pin_8*%
%TO.N,SCL*%
X79002666Y-66896987D03*
%TO.P,J7,9,Pin_9*%
%TO.N,SDA*%
X79002666Y-69436987D03*
%TO.P,J7,10,Pin_10*%
%TO.N,unconnected-(J7-Pin_10-Pad10)*%
X79002666Y-71976987D03*
%TO.P,J7,11,Pin_11*%
%TO.N,unconnected-(J7-Pin_11-Pad11)*%
X79002666Y-74516987D03*
%TO.P,J7,12,Pin_12*%
%TO.N,unconnected-(J7-Pin_12-Pad12)*%
X79002666Y-77056987D03*
%TO.P,J7,13,Pin_13*%
%TO.N,unconnected-(J7-Pin_13-Pad13)*%
X79002666Y-79596987D03*
%TO.P,J7,14,Pin_14*%
%TO.N,unconnected-(J7-Pin_14-Pad14)*%
X79002666Y-82136987D03*
%TO.P,J7,15,Pin_15*%
%TO.N,unconnected-(J7-Pin_15-Pad15)*%
X79002666Y-84676987D03*
%TO.P,J7,16,Pin_16*%
%TO.N,Par4*%
X79002666Y-87216987D03*
%TO.P,J7,17,Pin_17*%
%TO.N,Par3*%
X79002666Y-89756987D03*
%TO.P,J7,18,Pin_18*%
%TO.N,Par2*%
X79002666Y-92296987D03*
%TO.P,J7,19,Pin_19*%
%TO.N,Par1*%
X79002666Y-94836987D03*
%TO.P,J7,20,Pin_20*%
%TO.N,unconnected-(J7-Pin_20-Pad20)*%
X79002666Y-97376987D03*
%TO.P,J7,21,Pin_21*%
%TO.N,unconnected-(J7-Pin_21-Pad21)*%
X79002666Y-99916987D03*
%TO.P,J7,22,Pin_22*%
%TO.N,unconnected-(J7-Pin_22-Pad22)*%
X79002666Y-102456987D03*
%TO.P,J7,23,Pin_23*%
%TO.N,MOD_LED*%
X79002666Y-104996987D03*
%TO.P,J7,24,Pin_24*%
%TO.N,MOD_BTN*%
X79002666Y-107536987D03*
%TD*%
D21*
%TO.P,C7,1*%
%TO.N,VCC*%
X93450000Y-41132500D03*
%TO.P,C7,2*%
%TO.N,GND*%
X95000000Y-41132500D03*
%TD*%
D34*
%TO.P,J9,1,Pin_1*%
%TO.N,unconnected-(J9-Pin_1-Pad1)*%
X85000000Y-63080000D03*
D35*
%TO.P,J9,2,Pin_2*%
%TO.N,GND*%
X85000000Y-60540000D03*
%TD*%
D28*
%TO.P,J17,1,Pin_1*%
%TO.N,EFF_S*%
X38475000Y-93250000D03*
D18*
%TO.P,J17,2,Pin_2*%
%TO.N,3.3V*%
X38475000Y-90750000D03*
%TD*%
D26*
%TO.P,C10,1*%
%TO.N,3.3V*%
X103775000Y-19000000D03*
%TO.P,C10,2*%
%TO.N,GND*%
X102225000Y-19000000D03*
%TD*%
D27*
%TO.P,C8,1*%
%TO.N,5V*%
X78000000Y-31132500D03*
%TO.P,C8,2*%
%TO.N,GND*%
X78000000Y-29582500D03*
%TD*%
D28*
%TO.P,J15,1,Pin_1*%
%TO.N,MOD_LED*%
X38475000Y-50250000D03*
D18*
%TO.P,J15,2,Pin_2*%
%TO.N,Net-(J15-Pin_2)*%
X38475000Y-47750000D03*
%TD*%
D28*
%TO.P,J16,1,Pin_1*%
%TO.N,EFF_L*%
X38475000Y-103750000D03*
D18*
%TO.P,J16,2,Pin_2*%
%TO.N,3.3V*%
X38475000Y-101250000D03*
%TD*%
D36*
%TO.P,U3,1,GND*%
%TO.N,GND*%
X101050000Y-26960000D03*
D37*
%TO.P,U3,2,VO*%
%TO.N,3.3V*%
X101050000Y-29500000D03*
%TO.P,U3,3,VI*%
%TO.N,VCC*%
X101050000Y-32040000D03*
%TD*%
D28*
%TO.P,J14,1,Pin_1*%
%TO.N,MOD_BTN*%
X38475000Y-60750000D03*
D18*
%TO.P,J14,2,Pin_2*%
%TO.N,3.3V*%
X38475000Y-58250000D03*
%TD*%
D38*
%TO.P,J5,1,Pin_1*%
%TO.N,Net-(D1-A)*%
X87000000Y-23132500D03*
D39*
%TO.P,J5,2,Pin_2*%
%TO.N,GND*%
X82000000Y-23132500D03*
%TD*%
D34*
%TO.P,J8,1,Pin_1*%
%TO.N,Line-out*%
X82500000Y-70700000D03*
D35*
%TO.P,J8,2,Pin_2*%
%TO.N,GND*%
X82500000Y-68160000D03*
%TO.P,J8,3,Pin_3*%
%TO.N,unconnected-(J8-Pin_3-Pad3)*%
X82500000Y-65620000D03*
%TO.P,J8,4,Pin_4*%
%TO.N,unconnected-(J8-Pin_4-Pad4)*%
X82500000Y-63080000D03*
%TO.P,J8,5,Pin_5*%
%TO.N,Line-in*%
X82500000Y-60540000D03*
%TD*%
D40*
%TO.N,GND*%
X101500000Y-43000000D03*
X96500000Y-59140000D03*
%TO.N,*%
X171000000Y-20500000D03*
%TO.N,GND*%
X96500000Y-35132500D03*
X47975000Y-45250000D03*
X89000000Y-76500000D03*
%TD*%
D41*
%TO.N,3.3V*%
X109000000Y-44000000D02*
X103500000Y-38500000D01*
X109000000Y-70500000D02*
X109000000Y-44000000D01*
X105000000Y-74500000D02*
X109000000Y-70500000D01*
X79000000Y-26500000D02*
X78000000Y-25500000D01*
X87000000Y-26500000D02*
X79000000Y-26500000D01*
X90000000Y-29500000D02*
X87000000Y-26500000D01*
%TO.N,5V*%
X73000000Y-33500000D02*
X73000000Y-31500000D01*
%TO.N,VCC*%
X90212500Y-33212500D02*
X85000000Y-28000000D01*
X74580000Y-28000000D02*
X73000000Y-26420000D01*
X91000000Y-33212500D02*
X90212500Y-33212500D01*
X91000000Y-33212500D02*
X93000000Y-33212500D01*
X85000000Y-28000000D02*
X74580000Y-28000000D01*
%TO.N,3.3V*%
X76500000Y-17000000D02*
X50000000Y-17000000D01*
X78000000Y-18500000D02*
X76500000Y-17000000D01*
X78000000Y-25500000D02*
X78000000Y-18500000D01*
X101050000Y-29500000D02*
X90000000Y-29500000D01*
%TO.N,Net-(J20-Pin_1)*%
X69500000Y-29000000D02*
X69540000Y-28960000D01*
X69540000Y-28960000D02*
X73000000Y-28960000D01*
X68500000Y-28000000D02*
X69500000Y-29000000D01*
X68500000Y-26000000D02*
X68500000Y-28000000D01*
X67500000Y-25000000D02*
X68500000Y-26000000D01*
X64500000Y-25000000D02*
X67500000Y-25000000D01*
%TO.N,Net-(J4-Pin_1)*%
X103500000Y-46000000D02*
X101855000Y-46000000D01*
%TO.N,3.3V*%
X103500000Y-38500000D02*
X103500000Y-36500000D01*
X98000000Y-45500000D02*
X99000000Y-44500000D01*
X98000000Y-50020000D02*
X98000000Y-45500000D01*
X99000000Y-44500000D02*
X99000000Y-41000000D01*
X103500000Y-36500000D02*
X103500000Y-31950000D01*
X99000000Y-52500000D02*
X99000000Y-44500000D01*
X103815000Y-57315000D02*
X99000000Y-52500000D01*
X103500000Y-31950000D02*
X101050000Y-29500000D01*
X103815000Y-62190000D02*
X103815000Y-57315000D01*
X99000000Y-41000000D02*
X103500000Y-36500000D01*
%TO.N,Line-out*%
X85500000Y-54000000D02*
X81000000Y-58500000D01*
X81000000Y-69200000D02*
X82500000Y-70700000D01*
X90830000Y-54000000D02*
X85500000Y-54000000D01*
X81000000Y-58500000D02*
X81000000Y-69200000D01*
%TO.N,Line-in*%
X82500000Y-59000000D02*
X82500000Y-60540000D01*
X83500000Y-58000000D02*
X82500000Y-59000000D01*
X92000000Y-61500000D02*
X92000000Y-59500000D01*
X92690000Y-62190000D02*
X92000000Y-61500000D01*
X90500000Y-58000000D02*
X83500000Y-58000000D01*
X94500000Y-62190000D02*
X92690000Y-62190000D01*
X92000000Y-59500000D02*
X90500000Y-58000000D01*
%TO.N,GND*%
X96500000Y-59140000D02*
X95000000Y-59140000D01*
X89400000Y-76100000D02*
X89000000Y-76500000D01*
X94225000Y-81000000D02*
X90000000Y-81000000D01*
X97500000Y-59140000D02*
X96500000Y-59140000D01*
X89950000Y-73500000D02*
X89500000Y-73500000D01*
X89500000Y-73500000D02*
X89000000Y-74000000D01*
X95000000Y-59140000D02*
X94000000Y-58140000D01*
X90165000Y-76100000D02*
X89400000Y-76100000D01*
X101500000Y-43995000D02*
X101500000Y-43000000D01*
X98500000Y-57645000D02*
X98500000Y-58140000D01*
X89000000Y-74000000D02*
X89000000Y-76500000D01*
X89000000Y-80000000D02*
X89000000Y-76500000D01*
%TO.N,Net-(U1B-+)*%
X98000000Y-54140000D02*
X98500000Y-54640000D01*
%TO.N,Net-(C3-Pad1)*%
X92930000Y-54070000D02*
X92550000Y-54070000D01*
X93500000Y-54140000D02*
X95450000Y-54140000D01*
%TO.N,Net-(U1A-+)*%
X91815000Y-76100000D02*
X91900000Y-76100000D01*
%TO.N,Net-(J2-Pin_1)*%
X98500000Y-85000000D02*
X98000000Y-84500000D01*
%TO.N,Net-(U1B-+)*%
X99140000Y-54140000D02*
X100500000Y-55500000D01*
%TO.N,Net-(C3-Pad1)*%
X94000000Y-54640000D02*
X94000000Y-56590000D01*
X93500000Y-54140000D02*
X94000000Y-54640000D01*
%TO.N,GND*%
X98500000Y-58140000D02*
X97500000Y-59140000D01*
%TO.N,Net-(U1B-+)*%
X97000000Y-54140000D02*
X98000000Y-54140000D01*
%TO.N,Net-(U1A-+)*%
X92500000Y-73000000D02*
X92500000Y-74000000D01*
%TO.N,Net-(U1B-+)*%
X98000000Y-54140000D02*
X98500000Y-54140000D01*
%TO.N,Net-(C3-Pad1)*%
X93000000Y-54140000D02*
X92930000Y-54070000D01*
%TO.N,Net-(U1B-+)*%
X98000000Y-53640000D02*
X98000000Y-51670000D01*
X98500000Y-54140000D02*
X98000000Y-53640000D01*
X98500000Y-54140000D02*
X99140000Y-54140000D01*
%TO.N,Net-(U1A-+)*%
X92500000Y-74000000D02*
X92500000Y-75500000D01*
%TO.N,Net-(J2-Pin_1)*%
X97000000Y-79000000D02*
X97000000Y-78000000D01*
%TO.N,Net-(U1B-+)*%
X100500000Y-66495000D02*
X103815000Y-69810000D01*
%TO.N,GND*%
X90000000Y-81000000D02*
X89000000Y-80000000D01*
%TO.N,Net-(C3-Pad1)*%
X92550000Y-54070000D02*
X92480000Y-54000000D01*
%TO.N,Net-(C5-Pad1)*%
X101500000Y-49550000D02*
X101500000Y-51500000D01*
%TO.N,Net-(J2-Pin_1)*%
X99000000Y-85000000D02*
X99350000Y-85000000D01*
%TO.N,Net-(C3-Pad1)*%
X93000000Y-54140000D02*
X93500000Y-54140000D01*
%TO.N,Net-(J2-Pin_1)*%
X96400000Y-77400000D02*
X96000000Y-77400000D01*
X105500000Y-77000000D02*
X100000000Y-77000000D01*
%TO.N,Net-(U1A-+)*%
X92500000Y-74000000D02*
X93000000Y-74500000D01*
%TO.N,Net-(U1B-+)*%
X98500000Y-55995000D02*
X98500000Y-54640000D01*
%TO.N,Net-(U1A-+)*%
X93000000Y-74500000D02*
X94330000Y-74500000D01*
%TO.N,Net-(J2-Pin_1)*%
X100000000Y-77000000D02*
X99000000Y-77000000D01*
%TO.N,Net-(U1A-+)*%
X92500000Y-77000000D02*
X92900000Y-77400000D01*
X91500000Y-73500000D02*
X92000000Y-73500000D01*
%TO.N,Net-(C3-Pad1)*%
X92930000Y-54070000D02*
X92860000Y-54000000D01*
%TO.N,Net-(U1A-+)*%
X92500000Y-75500000D02*
X92500000Y-77000000D01*
%TO.N,Net-(J2-Pin_1)*%
X98500000Y-87500000D02*
X98500000Y-85500000D01*
%TO.N,Net-(U1A-+)*%
X91900000Y-76100000D02*
X92500000Y-75500000D01*
X92900000Y-77400000D02*
X94350000Y-77400000D01*
%TO.N,Net-(J2-Pin_1)*%
X98000000Y-84500000D02*
X98000000Y-78000000D01*
X97000000Y-80500000D02*
X97000000Y-79000000D01*
X106500000Y-78000000D02*
X105500000Y-77000000D01*
X99000000Y-77000000D02*
X98000000Y-78000000D01*
X95775000Y-81000000D02*
X96500000Y-81000000D01*
X98900000Y-87900000D02*
X99350000Y-87900000D01*
X98000000Y-78000000D02*
X97000000Y-79000000D01*
X96500000Y-81000000D02*
X97000000Y-80500000D01*
X98500000Y-85500000D02*
X99000000Y-85000000D01*
X99350000Y-85000000D02*
X98500000Y-85000000D01*
%TO.N,Net-(U1A-+)*%
X92000000Y-73500000D02*
X92500000Y-73000000D01*
X94230000Y-67270000D02*
X96195000Y-67270000D01*
%TO.N,Net-(J2-Pin_1)*%
X106500000Y-80000000D02*
X106500000Y-78000000D01*
X97000000Y-78000000D02*
X96400000Y-77400000D01*
%TO.N,Net-(U1B-+)*%
X100500000Y-55500000D02*
X100500000Y-66495000D01*
%TO.N,Net-(J2-Pin_1)*%
X98500000Y-87500000D02*
X98900000Y-87900000D01*
%TO.N,Net-(J2-Pin_3)*%
X101500000Y-84500000D02*
X101000000Y-85000000D01*
%TO.N,Net-(J3-Pin_2)*%
X102000000Y-94000000D02*
X104000000Y-96000000D01*
%TO.N,3.3V*%
X105000000Y-74500000D02*
X95980000Y-74500000D01*
%TO.N,Net-(J2-Pin_3)*%
X101500000Y-80000000D02*
X101500000Y-84500000D01*
%TO.N,Net-(J3-Pin_2)*%
X102000000Y-88500000D02*
X102000000Y-94000000D01*
X101400000Y-87900000D02*
X102000000Y-88500000D01*
%TO.N,Net-(U1B--)*%
X105230000Y-67270000D02*
X106000000Y-66500000D01*
X106000000Y-65500000D02*
X106000000Y-58140000D01*
X106000000Y-66500000D02*
X106000000Y-65500000D01*
X106000000Y-65500000D02*
X105230000Y-64730000D01*
%TO.N,Net-(J3-Pin_2)*%
X101000000Y-87900000D02*
X101400000Y-87900000D01*
%TO.N,Line-in*%
X93500000Y-63190000D02*
X94500000Y-62190000D01*
%TO.N,Net-(U1B--)*%
X101500000Y-53150000D02*
X101500000Y-53640000D01*
%TO.N,Net-(J4-Pin_1)*%
X107000000Y-46000000D02*
X103500000Y-46000000D01*
X101855000Y-46000000D02*
X101500000Y-45645000D01*
%TO.N,Net-(U1B--)*%
X101500000Y-53640000D02*
X106000000Y-58140000D01*
%TO.N,Line-in*%
X94500000Y-62190000D02*
X96195000Y-62190000D01*
X94230000Y-64730000D02*
X93500000Y-64000000D01*
X96195000Y-64730000D02*
X94230000Y-64730000D01*
%TO.N,Net-(U1B--)*%
X105230000Y-64730000D02*
X103815000Y-64730000D01*
X103815000Y-67270000D02*
X105230000Y-67270000D01*
%TO.N,Line-in*%
X93500000Y-64000000D02*
X93500000Y-63190000D01*
%TO.N,Net-(J3-Pin_2)*%
X104000000Y-96000000D02*
X104000000Y-100500000D01*
%TO.N,Net-(J4-Pin_1)*%
X103500000Y-46000000D02*
X101500000Y-48000000D01*
%TO.N,Net-(J1-Pin_1)*%
X105000000Y-88000000D02*
X104000000Y-87000000D01*
X104000000Y-87000000D02*
X104000000Y-80000000D01*
X107000000Y-88000000D02*
X105000000Y-88000000D01*
%TO.N,MOD_BTN*%
X78000000Y-106534321D02*
X79002666Y-107536987D01*
X78000000Y-106500000D02*
X78000000Y-106534321D01*
X71500000Y-106500000D02*
X78000000Y-106500000D01*
X70500000Y-105500000D02*
X71500000Y-106500000D01*
X70500000Y-47500000D02*
X70500000Y-105500000D01*
X69500000Y-46500000D02*
X70500000Y-47500000D01*
X53000000Y-50500000D02*
X57000000Y-46500000D01*
X49975000Y-60750000D02*
X53000000Y-57725000D01*
X57000000Y-46500000D02*
X69500000Y-46500000D01*
X38475000Y-60750000D02*
X49975000Y-60750000D01*
X53000000Y-57725000D02*
X53000000Y-50500000D01*
%TO.N,MOD_LED*%
X71000000Y-103000000D02*
X72000000Y-104000000D01*
X72000000Y-104000000D02*
X78005679Y-104000000D01*
X71000000Y-47432900D02*
X71000000Y-103000000D01*
X69567100Y-46000000D02*
X71000000Y-47432900D01*
X78005679Y-104000000D02*
X79002666Y-104996987D01*
X52500000Y-46000000D02*
X69567100Y-46000000D01*
X48250000Y-50250000D02*
X52500000Y-46000000D01*
X38475000Y-50250000D02*
X48250000Y-50250000D01*
%TO.N,Par4*%
X53500000Y-19500000D02*
X50000000Y-19500000D01*
X56500000Y-22500000D02*
X53500000Y-19500000D01*
X56500000Y-38500000D02*
X56500000Y-22500000D01*
X73500000Y-47298700D02*
X65701300Y-39500000D01*
X74500000Y-86500000D02*
X73500000Y-85500000D01*
X73500000Y-85500000D02*
X73500000Y-47298700D01*
X77500000Y-86500000D02*
X74500000Y-86500000D01*
X78216987Y-87216987D02*
X77500000Y-86500000D01*
X65701300Y-39500000D02*
X57500000Y-39500000D01*
X57500000Y-39500000D02*
X56500000Y-38500000D01*
X79002666Y-87216987D02*
X78216987Y-87216987D01*
%TO.N,Par3*%
X78245679Y-89000000D02*
X79002666Y-89756987D01*
X74000000Y-89000000D02*
X78245679Y-89000000D01*
X73000000Y-88000000D02*
X74000000Y-89000000D01*
X66134200Y-40500000D02*
X73000000Y-47365800D01*
X57000000Y-40500000D02*
X66134200Y-40500000D01*
X55500000Y-39000000D02*
X57000000Y-40500000D01*
X54500000Y-27500000D02*
X55500000Y-28500000D01*
X55500000Y-28500000D02*
X55500000Y-39000000D01*
X47000000Y-27500000D02*
X54500000Y-27500000D01*
X45000000Y-25500000D02*
X47000000Y-27500000D01*
X45000000Y-21000000D02*
X45000000Y-25500000D01*
X43500000Y-19500000D02*
X45000000Y-21000000D01*
X39000000Y-19500000D02*
X43500000Y-19500000D01*
X73000000Y-47365800D02*
X73000000Y-88000000D01*
%TO.N,Par2*%
X79002666Y-92002666D02*
X79002666Y-92296987D01*
X78500000Y-91500000D02*
X79002666Y-92002666D01*
X73500000Y-91500000D02*
X78500000Y-91500000D01*
X72500000Y-47432900D02*
X72500000Y-90500000D01*
X72500000Y-90500000D02*
X73500000Y-91500000D01*
X47500000Y-41500000D02*
X66567100Y-41500000D01*
X45500000Y-39500000D02*
X47500000Y-41500000D01*
X45500000Y-36000000D02*
X45500000Y-39500000D01*
X47500000Y-34000000D02*
X45500000Y-36000000D01*
X66567100Y-41500000D02*
X72500000Y-47432900D01*
X50000000Y-34000000D02*
X47500000Y-34000000D01*
%TO.N,Par1*%
X72000000Y-93000000D02*
X72000000Y-47500000D01*
X73000000Y-94000000D02*
X72000000Y-93000000D01*
X78500000Y-94000000D02*
X73000000Y-94000000D01*
X72000000Y-47500000D02*
X67000000Y-42500000D01*
X79002666Y-94502666D02*
X78500000Y-94000000D01*
X67000000Y-42500000D02*
X47000000Y-42500000D01*
X79002666Y-94836987D02*
X79002666Y-94502666D01*
X47000000Y-42500000D02*
X38500000Y-34000000D01*
%TO.N,SDA*%
X74500000Y-67500000D02*
X74500000Y-41000000D01*
X75500000Y-68500000D02*
X74500000Y-67500000D01*
X78065679Y-68500000D02*
X75500000Y-68500000D01*
X74500000Y-41000000D02*
X69500000Y-36000000D01*
X79002666Y-69436987D02*
X78065679Y-68500000D01*
X69500000Y-36000000D02*
X64500000Y-36000000D01*
%TO.N,SCL*%
X75500000Y-66000000D02*
X78105679Y-66000000D01*
X70000000Y-33500000D02*
X75000000Y-38500000D01*
X75000000Y-38500000D02*
X75000000Y-65500000D01*
X75000000Y-65500000D02*
X75500000Y-66000000D01*
X64500000Y-33500000D02*
X70000000Y-33500000D01*
X78105679Y-66000000D02*
X79002666Y-66896987D01*
%TO.N,MODE1*%
X57000000Y-89000000D02*
X57720000Y-89720000D01*
X57000000Y-69000000D02*
X57000000Y-89000000D01*
X55000000Y-67000000D02*
X57000000Y-69000000D01*
X40000000Y-67000000D02*
X55000000Y-67000000D01*
X38500000Y-68500000D02*
X40000000Y-67000000D01*
X57720000Y-89720000D02*
X63500000Y-89720000D01*
X38500000Y-69500000D02*
X38500000Y-68500000D01*
%TO.N,MODE2*%
X56000000Y-71000000D02*
X54500000Y-69500000D01*
X56000000Y-91500000D02*
X56000000Y-71000000D01*
X56760000Y-92260000D02*
X56000000Y-91500000D01*
X63500000Y-92260000D02*
X56760000Y-92260000D01*
X54500000Y-69500000D02*
X47500000Y-69500000D01*
%TO.N,3.3V*%
X47500000Y-74000000D02*
X47500000Y-72000000D01*
X38500000Y-74000000D02*
X38500000Y-72000000D01*
%TO.N,EFF_R*%
X57840000Y-97340000D02*
X63500000Y-97340000D01*
X55000000Y-94500000D02*
X57840000Y-97340000D01*
X51250000Y-82750000D02*
X55000000Y-86500000D01*
X38475000Y-82750000D02*
X51250000Y-82750000D01*
X55000000Y-86500000D02*
X55000000Y-94500000D01*
%TO.N,EFF_S*%
X55880000Y-99880000D02*
X63500000Y-99880000D01*
X49250000Y-93250000D02*
X55880000Y-99880000D01*
X38475000Y-93250000D02*
X49250000Y-93250000D01*
%TO.N,EFF_L*%
X56080000Y-102420000D02*
X63500000Y-102420000D01*
X54750000Y-103750000D02*
X56080000Y-102420000D01*
X38475000Y-103750000D02*
X54750000Y-103750000D01*
%TO.N,3.3V*%
X38475000Y-58250000D02*
X35750000Y-58250000D01*
X33500000Y-56000000D02*
X33500000Y-74000000D01*
X35750000Y-58250000D02*
X33500000Y-56000000D01*
X37000000Y-75500000D02*
X35000000Y-75500000D01*
X38500000Y-74000000D02*
X37000000Y-75500000D01*
X47500000Y-74000000D02*
X46000000Y-75500000D01*
X33500000Y-74000000D02*
X33500000Y-76775000D01*
X46000000Y-75500000D02*
X37000000Y-75500000D01*
X35000000Y-75500000D02*
X33500000Y-74000000D01*
X36975000Y-80250000D02*
X33500000Y-76775000D01*
X38475000Y-80250000D02*
X36975000Y-80250000D01*
X33500000Y-76775000D02*
X33500000Y-87275000D01*
X33500000Y-18500000D02*
X33500000Y-56000000D01*
X38475000Y-90750000D02*
X36975000Y-90750000D01*
X36975000Y-90750000D02*
X33500000Y-87275000D01*
X33500000Y-87275000D02*
X33500000Y-98275000D01*
X35000000Y-17000000D02*
X33500000Y-18500000D01*
X33500000Y-98275000D02*
X36475000Y-101250000D01*
X36475000Y-101250000D02*
X38475000Y-101250000D01*
X37500000Y-17000000D02*
X35000000Y-17000000D01*
%TO.N,5V*%
X79840000Y-48279653D02*
X79002666Y-49116987D01*
X79840000Y-35052500D02*
X79840000Y-48279653D01*
X76000000Y-36500000D02*
X73000000Y-33500000D01*
X79000000Y-36500000D02*
X76000000Y-36500000D01*
%TO.N,GND*%
X101500000Y-22500000D02*
X100500000Y-23500000D01*
X47975000Y-46750000D02*
X46975000Y-47750000D01*
X80530000Y-29582500D02*
X81450000Y-29582500D01*
X96000000Y-37132500D02*
X96500000Y-36632500D01*
X96500000Y-36632500D02*
X96500000Y-35132500D01*
X100500000Y-26410000D02*
X101050000Y-26960000D01*
X78000000Y-29582500D02*
X80530000Y-29582500D01*
X100500000Y-20000000D02*
X100500000Y-23500000D01*
X102225000Y-19000000D02*
X101500000Y-19000000D01*
X101500000Y-19000000D02*
X100500000Y-20000000D01*
X82380000Y-30512500D02*
X82380000Y-35052500D01*
X46975000Y-47750000D02*
X46475000Y-47750000D01*
X95000000Y-37132500D02*
X96000000Y-37132500D01*
X96500000Y-40632500D02*
X96500000Y-36632500D01*
X96000000Y-41132500D02*
X96500000Y-40632500D01*
X47975000Y-45250000D02*
X47975000Y-46750000D01*
X100500000Y-23500000D02*
X100500000Y-26410000D01*
X95000000Y-41132500D02*
X96000000Y-41132500D01*
X102225000Y-22500000D02*
X101500000Y-22500000D01*
X81450000Y-29582500D02*
X82380000Y-30512500D01*
%TO.N,VCC*%
X93570000Y-37132500D02*
X92000000Y-37132500D01*
X84920000Y-34212500D02*
X84920000Y-35052500D01*
X92000000Y-37132500D02*
X91000000Y-36132500D01*
X93450000Y-41132500D02*
X92000000Y-41132500D01*
X91000000Y-40132500D02*
X91000000Y-36132500D01*
X88580000Y-33212500D02*
X85920000Y-33212500D01*
X92000000Y-41132500D02*
X91000000Y-40132500D01*
X88580000Y-33212500D02*
X91000000Y-33212500D01*
X91000000Y-36132500D02*
X91000000Y-35632500D01*
X85920000Y-33212500D02*
X84920000Y-34212500D01*
X91000000Y-35632500D02*
X88580000Y-33212500D01*
X93000000Y-33212500D02*
X99877500Y-33212500D01*
X85000000Y-35132500D02*
X84920000Y-35052500D01*
X99877500Y-33212500D02*
X101050000Y-32040000D01*
%TO.N,5V*%
X79840000Y-35052500D02*
X79840000Y-35660000D01*
X79840000Y-35052500D02*
X79840000Y-32972500D01*
X78000000Y-31132500D02*
X80530000Y-31132500D01*
X79840000Y-32972500D02*
X78000000Y-31132500D01*
X79840000Y-35660000D02*
X79000000Y-36500000D01*
%TO.N,3.3V*%
X39400000Y-17400000D02*
X39000000Y-17000000D01*
X36500000Y-30500000D02*
X36500000Y-18000000D01*
X38500000Y-31500000D02*
X37500000Y-31500000D01*
X39000000Y-17000000D02*
X49600000Y-17000000D01*
X103775000Y-28225000D02*
X103775000Y-19000000D01*
X37500000Y-17000000D02*
X39000000Y-17000000D01*
X50000000Y-31500000D02*
X38500000Y-31500000D01*
X101050000Y-29500000D02*
X102500000Y-29500000D01*
X102500000Y-29500000D02*
X103775000Y-28225000D01*
X37500000Y-31500000D02*
X36500000Y-30500000D01*
X38900000Y-31900000D02*
X38500000Y-31500000D01*
X49600000Y-17000000D02*
X50000000Y-17400000D01*
%TO.N,Net-(D1-A)*%
X87000000Y-23132500D02*
X92920000Y-23132500D01*
X92920000Y-23132500D02*
X93000000Y-23052500D01*
%TO.N,Net-(J15-Pin_2)*%
X38475000Y-47750000D02*
X44825000Y-47750000D01*
%TO.N,3.3V*%
X36500000Y-18000000D02*
X37500000Y-17000000D01*
%TO.N,Net-(U1A-+)*%
X92500000Y-69000000D02*
X94230000Y-67270000D01*
X92500000Y-73000000D02*
X92500000Y-69000000D01*
%TD*%
M02*
