%TF.GenerationSoftware,KiCad,Pcbnew,9.0.5*%
%TF.CreationDate,2026-03-02T22:48:12+01:00*%
%TF.ProjectId,PCB-schematics,5043422d-7363-4686-956d-61746963732e,rev?*%
%TF.SameCoordinates,Original*%
%TF.FileFunction,Soldermask,Top*%
%TF.FilePolarity,Negative*%
%FSLAX46Y46*%
G04 Gerber Fmt 4.6, Leading zero omitted, Abs format (unit mm)*
G04 Created by KiCad (PCBNEW 9.0.5) date 2026-03-02 22:48:12*
%MOMM*%
%LPD*%
G01*
G04 APERTURE LIST*
G04 Aperture macros list*
%AMRoundRect*
0 Rectangle with rounded corners*
0 $1 Rounding radius*
0 $2 $3 $4 $5 $6 $7 $8 $9 X,Y pos of 4 corners*
0 Add a 4 corners polygon primitive as box body*
4,1,4,$2,$3,$4,$5,$6,$7,$8,$9,$2,$3,0*
0 Add four circle primitives for the rounded corners*
1,1,$1+$1,$2,$3*
1,1,$1+$1,$4,$5*
1,1,$1+$1,$6,$7*
1,1,$1+$1,$8,$9*
0 Add four rect primitives between the rounded corners*
20,1,$1+$1,$2,$3,$4,$5,0*
20,1,$1+$1,$4,$5,$6,$7,0*
20,1,$1+$1,$6,$7,$8,$9,0*
20,1,$1+$1,$8,$9,$2,$3,0*%
G04 Aperture macros list end*
%ADD10C,2.700000*%
%ADD11R,1.700000X1.700000*%
%ADD12C,1.700000*%
%ADD13RoundRect,0.250000X0.725000X-0.600000X0.725000X0.600000X-0.725000X0.600000X-0.725000X-0.600000X0*%
%ADD14O,1.950000X1.700000*%
%ADD15C,1.600000*%
%ADD16RoundRect,0.250000X-0.550000X-0.550000X0.550000X-0.550000X0.550000X0.550000X-0.550000X0.550000X0*%
%ADD17RoundRect,0.200000X0.200000X0.275000X-0.200000X0.275000X-0.200000X-0.275000X0.200000X-0.275000X0*%
%ADD18RoundRect,0.200000X0.275000X-0.200000X0.275000X0.200000X-0.275000X0.200000X-0.275000X-0.200000X0*%
%ADD19O,2.000000X1.700000*%
%ADD20RoundRect,0.250000X-0.750000X0.600000X-0.750000X-0.600000X0.750000X-0.600000X0.750000X0.600000X0*%
%ADD21RoundRect,0.200000X-0.200000X-0.275000X0.200000X-0.275000X0.200000X0.275000X-0.200000X0.275000X0*%
%ADD22RoundRect,0.225000X-0.225000X-0.250000X0.225000X-0.250000X0.225000X0.250000X-0.225000X0.250000X0*%
%ADD23RoundRect,0.200000X-0.275000X0.200000X-0.275000X-0.200000X0.275000X-0.200000X0.275000X0.200000X0*%
%ADD24O,1.700000X1.950000*%
%ADD25RoundRect,0.250000X0.600000X0.725000X-0.600000X0.725000X-0.600000X-0.725000X0.600000X-0.725000X0*%
%ADD26RoundRect,0.225000X-0.250000X0.225000X-0.250000X-0.225000X0.250000X-0.225000X0.250000X0.225000X0*%
%ADD27RoundRect,0.225000X0.225000X0.250000X-0.225000X0.250000X-0.225000X-0.250000X0.225000X-0.250000X0*%
%ADD28RoundRect,0.225000X0.250000X-0.225000X0.250000X0.225000X-0.250000X0.225000X-0.250000X-0.225000X0*%
%ADD29RoundRect,0.250000X0.750000X-0.600000X0.750000X0.600000X-0.750000X0.600000X-0.750000X-0.600000X0*%
%ADD30RoundRect,0.250000X-0.295000X-0.315000X0.295000X-0.315000X0.295000X0.315000X-0.295000X0.315000X0*%
%ADD31RoundRect,0.249999X0.850001X-0.850001X0.850001X0.850001X-0.850001X0.850001X-0.850001X-0.850001X0*%
%ADD32C,2.200000*%
%ADD33R,1.905000X2.000000*%
%ADD34O,1.905000X2.000000*%
%ADD35RoundRect,0.250000X0.620000X-0.620000X0.620000X0.620000X-0.620000X0.620000X-0.620000X-0.620000X0*%
%ADD36C,1.740000*%
%ADD37R,2.000000X1.905000*%
%ADD38O,2.000000X1.905000*%
%ADD39RoundRect,0.250000X1.000000X1.000000X-1.000000X1.000000X-1.000000X-1.000000X1.000000X-1.000000X0*%
%ADD40C,2.500000*%
G04 APERTURE END LIST*
D10*
%TO.C,REF\u002A\u002A*%
X108000000Y-108000000D03*
%TD*%
%TO.C,REF\u002A\u002A*%
X29500000Y-108000000D03*
%TD*%
%TO.C,REF\u002A\u002A*%
X29500000Y-17000000D03*
%TD*%
%TO.C,REF\u002A\u002A*%
X108000000Y-17000000D03*
%TD*%
D11*
%TO.C,J23*%
X73000000Y-31500000D03*
D12*
X73000000Y-28960000D03*
X73000000Y-26420000D03*
%TD*%
D13*
%TO.C,J13*%
X50000000Y-22000000D03*
D14*
X50000000Y-19500000D03*
X50000000Y-17000000D03*
%TD*%
D13*
%TO.C,J12*%
X39000000Y-22000000D03*
D14*
X39000000Y-19500000D03*
X39000000Y-17000000D03*
%TD*%
D13*
%TO.C,J11*%
X50000000Y-36500000D03*
D14*
X50000000Y-34000000D03*
X50000000Y-31500000D03*
%TD*%
D13*
%TO.C,J10*%
X38500000Y-36500000D03*
D14*
X38500000Y-34000000D03*
X38500000Y-31500000D03*
%TD*%
D15*
%TO.C,U1*%
X103815000Y-62190000D03*
X103815000Y-64730000D03*
X103815000Y-67270000D03*
X103815000Y-69810000D03*
X96195000Y-69810000D03*
X96195000Y-67270000D03*
X96195000Y-64730000D03*
D16*
X96195000Y-62190000D03*
%TD*%
D17*
%TO.C,R3*%
X94350000Y-77400000D03*
X96000000Y-77400000D03*
%TD*%
D18*
%TO.C,R7*%
X98000000Y-50020000D03*
X98000000Y-51670000D03*
%TD*%
D17*
%TO.C,R2*%
X99350000Y-87900000D03*
X101000000Y-87900000D03*
%TD*%
D18*
%TO.C,R8*%
X98500000Y-55995000D03*
X98500000Y-57645000D03*
%TD*%
D19*
%TO.C,J4*%
X107000000Y-48500000D03*
D20*
X107000000Y-46000000D03*
%TD*%
D21*
%TO.C,R5*%
X91815000Y-76100000D03*
X90165000Y-76100000D03*
%TD*%
D22*
%TO.C,C4*%
X97000000Y-54140000D03*
X95450000Y-54140000D03*
%TD*%
D19*
%TO.C,J1*%
X107000000Y-90500000D03*
D20*
X107000000Y-88000000D03*
%TD*%
D23*
%TO.C,R10*%
X101500000Y-45645000D03*
X101500000Y-43995000D03*
%TD*%
D24*
%TO.C,J3*%
X101500000Y-100500000D03*
X104000000Y-100500000D03*
D25*
X106500000Y-100500000D03*
%TD*%
D21*
%TO.C,R6*%
X92480000Y-54000000D03*
X90830000Y-54000000D03*
%TD*%
%TO.C,R4*%
X95980000Y-74500000D03*
X94330000Y-74500000D03*
%TD*%
D26*
%TO.C,C3*%
X94000000Y-58140000D03*
X94000000Y-56590000D03*
%TD*%
D18*
%TO.C,R9*%
X101500000Y-51500000D03*
X101500000Y-53150000D03*
%TD*%
D17*
%TO.C,R1*%
X99350000Y-85000000D03*
X101000000Y-85000000D03*
%TD*%
D27*
%TO.C,C1*%
X94225000Y-81000000D03*
X95775000Y-81000000D03*
%TD*%
%TO.C,C2*%
X89950000Y-73500000D03*
X91500000Y-73500000D03*
%TD*%
D24*
%TO.C,J2*%
X101500000Y-80000000D03*
X104000000Y-80000000D03*
D25*
X106500000Y-80000000D03*
%TD*%
D28*
%TO.C,C5*%
X101500000Y-48000000D03*
X101500000Y-49550000D03*
%TD*%
D19*
%TO.C,J22*%
X47500000Y-69500000D03*
D29*
X47500000Y-72000000D03*
%TD*%
D21*
%TO.C,R11*%
X44825000Y-47750000D03*
X46475000Y-47750000D03*
%TD*%
D29*
%TO.C,J20*%
X64500000Y-25000000D03*
D19*
X64500000Y-22500000D03*
%TD*%
D27*
%TO.C,C11*%
X103775000Y-22500000D03*
X102225000Y-22500000D03*
%TD*%
D29*
%TO.C,J21*%
X38500000Y-72000000D03*
D19*
X38500000Y-69500000D03*
%TD*%
D28*
%TO.C,C9*%
X80530000Y-31132500D03*
X80530000Y-29582500D03*
%TD*%
D30*
%TO.C,C6*%
X93570000Y-37132500D03*
X95000000Y-37132500D03*
%TD*%
D11*
%TO.C,J6*%
X63500000Y-49080000D03*
D12*
X63500000Y-51620000D03*
X63500000Y-54160000D03*
X63500000Y-56700000D03*
X63500000Y-59240000D03*
X63500000Y-61780000D03*
X63500000Y-64320000D03*
X63500000Y-66860000D03*
X63500000Y-69400000D03*
X63500000Y-71940000D03*
X63500000Y-74480000D03*
X63500000Y-77020000D03*
X63500000Y-79560000D03*
X63500000Y-82100000D03*
X63500000Y-84640000D03*
X63500000Y-87180000D03*
X63500000Y-89720000D03*
X63500000Y-92260000D03*
X63500000Y-94800000D03*
X63500000Y-97340000D03*
X63500000Y-99880000D03*
X63500000Y-102420000D03*
X63500000Y-104960000D03*
X63500000Y-107500000D03*
%TD*%
D31*
%TO.C,D1*%
X93000000Y-33212500D03*
D32*
X93000000Y-23052500D03*
%TD*%
D33*
%TO.C,U2*%
X84920000Y-35052500D03*
D34*
X82380000Y-35052500D03*
X79840000Y-35052500D03*
%TD*%
D29*
%TO.C,J19*%
X64500000Y-36000000D03*
D19*
X64500000Y-33500000D03*
%TD*%
D29*
%TO.C,J18*%
X38475000Y-82750000D03*
D19*
X38475000Y-80250000D03*
%TD*%
D11*
%TO.C,J7*%
X79002666Y-49116987D03*
D12*
X79002666Y-51656987D03*
X79002666Y-54196987D03*
X79002666Y-56736987D03*
X79002666Y-59276987D03*
X79002666Y-61816987D03*
X79002666Y-64356987D03*
X79002666Y-66896987D03*
X79002666Y-69436987D03*
X79002666Y-71976987D03*
X79002666Y-74516987D03*
X79002666Y-77056987D03*
X79002666Y-79596987D03*
X79002666Y-82136987D03*
X79002666Y-84676987D03*
X79002666Y-87216987D03*
X79002666Y-89756987D03*
X79002666Y-92296987D03*
X79002666Y-94836987D03*
X79002666Y-97376987D03*
X79002666Y-99916987D03*
X79002666Y-102456987D03*
X79002666Y-104996987D03*
X79002666Y-107536987D03*
%TD*%
D22*
%TO.C,C7*%
X93450000Y-41132500D03*
X95000000Y-41132500D03*
%TD*%
D35*
%TO.C,J9*%
X85000000Y-63080000D03*
D36*
X85000000Y-60540000D03*
%TD*%
D29*
%TO.C,J17*%
X38475000Y-93250000D03*
D19*
X38475000Y-90750000D03*
%TD*%
D27*
%TO.C,C10*%
X103775000Y-19000000D03*
X102225000Y-19000000D03*
%TD*%
D28*
%TO.C,C8*%
X78000000Y-31132500D03*
X78000000Y-29582500D03*
%TD*%
D29*
%TO.C,J15*%
X38475000Y-50250000D03*
D19*
X38475000Y-47750000D03*
%TD*%
D29*
%TO.C,J16*%
X38475000Y-103750000D03*
D19*
X38475000Y-101250000D03*
%TD*%
D37*
%TO.C,U3*%
X101050000Y-26960000D03*
D38*
X101050000Y-29500000D03*
X101050000Y-32040000D03*
%TD*%
D29*
%TO.C,J14*%
X38475000Y-60750000D03*
D19*
X38475000Y-58250000D03*
%TD*%
D39*
%TO.C,J5*%
X87000000Y-23132500D03*
D40*
X82000000Y-23132500D03*
%TD*%
D35*
%TO.C,J8*%
X82500000Y-70700000D03*
D36*
X82500000Y-68160000D03*
X82500000Y-65620000D03*
X82500000Y-63080000D03*
X82500000Y-60540000D03*
%TD*%
M02*
