M48
; DRILL file {KiCad 9.0.5} date 2026-03-02T22:48:16+0100
; FORMAT={-:-/ absolute / metric / decimal}
; #@! TF.CreationDate,2026-03-02T22:48:16+01:00
; #@! TF.GenerationSoftware,Kicad,Pcbnew,9.0.5
; #@! TF.FileFunction,Plated,1,2,PTH
FMAT,2
METRIC
; #@! TA.AperFunction,Plated,PTH,ViaDrill
T1C0.300
; #@! TA.AperFunction,Plated,PTH,ComponentDrill
T2C0.800
; #@! TA.AperFunction,Plated,PTH,ComponentDrill
T3C0.950
; #@! TA.AperFunction,Plated,PTH,ComponentDrill
T4C1.000
; #@! TA.AperFunction,Plated,PTH,ComponentDrill
T5C1.090
; #@! TA.AperFunction,Plated,PTH,ComponentDrill
T6C1.100
; #@! TA.AperFunction,Plated,PTH,ComponentDrill
T7C1.300
%
G90
G05
T1
X47.975Y-45.25
X89.0Y-76.5
X96.5Y-35.133
X96.5Y-59.14
X101.5Y-43.0
X171.0Y-20.5
T2
X96.195Y-62.19
X96.195Y-64.73
X96.195Y-67.27
X96.195Y-69.81
X103.815Y-62.19
X103.815Y-64.73
X103.815Y-67.27
X103.815Y-69.81
T3
X38.5Y-31.5
X38.5Y-34.0
X38.5Y-36.5
X39.0Y-17.0
X39.0Y-19.5
X39.0Y-22.0
X50.0Y-17.0
X50.0Y-19.5
X50.0Y-22.0
X50.0Y-31.5
X50.0Y-34.0
X50.0Y-36.5
X101.5Y-80.0
X101.5Y-100.5
X104.0Y-80.0
X104.0Y-100.5
X106.5Y-80.0
X106.5Y-100.5
T4
X38.475Y-47.75
X38.475Y-50.25
X38.475Y-58.25
X38.475Y-60.75
X38.475Y-80.25
X38.475Y-82.75
X38.475Y-90.75
X38.475Y-93.25
X38.475Y-101.25
X38.475Y-103.75
X38.5Y-69.5
X38.5Y-72.0
X47.5Y-69.5
X47.5Y-72.0
X63.5Y-49.08
X63.5Y-51.62
X63.5Y-54.16
X63.5Y-56.7
X63.5Y-59.24
X63.5Y-61.78
X63.5Y-64.32
X63.5Y-66.86
X63.5Y-69.4
X63.5Y-71.94
X63.5Y-74.48
X63.5Y-77.02
X63.5Y-79.56
X63.5Y-82.1
X63.5Y-84.64
X63.5Y-87.18
X63.5Y-89.72
X63.5Y-92.26
X63.5Y-94.8
X63.5Y-97.34
X63.5Y-99.88
X63.5Y-102.42
X63.5Y-104.96
X63.5Y-107.5
X64.5Y-22.5
X64.5Y-25.0
X64.5Y-33.5
X64.5Y-36.0
X73.0Y-26.42
X73.0Y-28.96
X73.0Y-31.5
X79.003Y-49.117
X79.003Y-51.657
X79.003Y-54.197
X79.003Y-56.737
X79.003Y-59.277
X79.003Y-61.817
X79.003Y-64.357
X79.003Y-66.897
X79.003Y-69.437
X79.003Y-71.977
X79.003Y-74.517
X79.003Y-77.057
X79.003Y-79.597
X79.003Y-82.137
X79.003Y-84.677
X79.003Y-87.217
X79.003Y-89.757
X79.003Y-92.297
X79.003Y-94.837
X79.003Y-97.377
X79.003Y-99.917
X79.003Y-102.457
X79.003Y-104.997
X79.003Y-107.537
X107.0Y-46.0
X107.0Y-48.5
X107.0Y-88.0
X107.0Y-90.5
T5
X82.5Y-60.54
X82.5Y-63.08
X82.5Y-65.62
X82.5Y-68.16
X82.5Y-70.7
X85.0Y-60.54
X85.0Y-63.08
T6
X79.84Y-35.052
X82.38Y-35.052
X84.92Y-35.052
X93.0Y-23.052
X93.0Y-33.212
X101.05Y-26.96
X101.05Y-29.5
X101.05Y-32.04
T7
X82.0Y-23.133
X87.0Y-23.133
M30
